<svg width="390" height="840" viewBox="0 0 390 840" fill="none" xmlns="http://www.w3.org/2000/svg">
<path d="M576.293 381.656C569.581 312.235 544.863 245.956 504.735 189.773C508.378 183.417 510.317 176.18 510.361 168.8C510.361 157.608 506.044 146.874 498.368 138.96C490.688 131.046 480.274 126.6 469.417 126.6C463.663 126.614 457.977 127.889 452.739 130.341C428.386 107.478 401.239 87.9951 371.985 72.3868C369.492 63.6946 364.349 56.0627 357.314 50.6243C350.279 45.1859 341.732 42.2316 332.936 42.2C326.255 42.2549 319.689 44.0189 313.83 47.3343C275.925 34.6337 236.317 28.1544 196.459 28.1333C181.404 28.1723 166.362 29.154 151.421 31.0732C131.205 11.3499 104.495 0.247841 76.6594 0C21.454 0 -26.136 44.4787 -39.347 107.019C-91.2088 123.421 -128.058 179.195 -128.058 243.466C-128.034 249.324 -127.678 255.177 -126.993 260.993C-177.49 278.52 -212.975 333.211 -212.975 396.509C-213.427 421.1 -207.84 445.406 -196.733 467.171C-185.625 488.936 -169.358 507.452 -149.444 521.002C-163.286 545.051 -170.567 572.512 -170.516 600.477C-170.516 678.52 -116.771 742.016 -50.7159 742.016C-46.5813 742.009 -42.4512 741.731 -38.3507 741.185C-23.9388 801.561 22.6142 844 76.6594 844C104.495 843.75 131.205 832.65 151.421 812.925C166.362 814.846 181.404 815.826 196.459 815.865C236.317 815.844 275.925 809.366 313.83 796.664C319.689 799.979 326.255 801.745 332.936 801.8C341.732 801.769 350.279 798.812 357.314 793.373C364.349 787.938 369.492 780.303 371.985 771.611C401.239 756.004 428.386 736.522 452.739 713.658C457.977 716.108 463.663 717.384 469.417 717.398C480.274 717.398 490.688 712.953 498.368 705.04C506.044 697.127 510.361 686.392 510.361 675.198C510.317 667.82 508.378 660.581 504.735 654.225C544.863 598.041 569.581 531.765 576.293 462.344C584.812 459.852 592.31 454.566 597.652 447.286C602.991 440.005 605.881 431.126 605.881 422C605.881 412.871 602.991 403.995 597.652 396.714C592.31 389.43 584.812 384.144 576.293 381.656ZM469.417 632.998C467.474 633.057 465.542 633.259 463.63 633.603L380.376 498.844C379.148 496.856 377.455 495.22 375.452 494.08C373.449 492.943 371.202 492.342 368.912 492.332H196.459V436.068H526.519C528.405 441.576 531.376 446.622 535.248 450.89C539.12 455.157 543.804 458.556 549.011 460.867C542.657 524.074 520.209 584.429 483.936 635.813C479.306 633.964 474.382 633.012 469.417 632.998ZM332.936 717.398C327.459 717.391 322.039 718.524 316.997 720.734L196.459 571.64V520.467H361.422L439.391 646.743C433.677 652.97 429.991 660.883 428.851 669.373C427.708 677.863 429.165 686.51 433.016 694.103C413.61 712.133 392.305 727.861 369.499 741.001C366.154 733.943 360.953 727.987 354.491 723.816C348.029 719.643 340.562 717.422 332.936 717.398ZM316.997 123.266C326.603 127.468 337.405 127.708 347.176 123.936C356.946 120.163 364.939 112.667 369.499 102.996C392.305 116.137 413.61 131.868 433.016 149.894C429.165 157.49 427.708 166.137 428.851 174.627C429.991 183.117 433.677 191.028 439.391 197.257L361.422 323.533H196.459V272.359L316.997 123.266ZM483.936 208.186C520.219 259.588 542.668 319.962 549.011 383.189C543.807 385.493 539.126 388.881 535.255 393.138C531.386 397.399 528.411 402.435 526.519 407.932H196.459V351.665H368.912C371.209 351.668 373.469 351.071 375.482 349.931C377.496 348.794 379.199 347.15 380.433 345.153L463.684 210.395C470.523 211.697 477.582 210.91 483.99 208.13L483.936 208.186ZM483.063 168.8C483.063 171.582 482.264 174.302 480.763 176.615C479.265 178.928 477.134 180.731 474.638 181.796C472.146 182.86 469.4 183.139 466.753 182.596C464.105 182.053 461.674 180.714 459.765 178.746C457.856 176.779 456.557 174.273 456.031 171.544C455.505 168.815 455.775 165.987 456.807 163.417C457.839 160.847 459.589 158.65 461.832 157.104C464.078 155.558 466.716 154.733 469.417 154.733C473.036 154.733 476.506 156.215 479.066 158.853C481.626 161.491 483.063 165.069 483.063 168.8ZM332.936 70.3333C335.638 70.3333 338.275 71.1584 340.521 72.7041C342.764 74.2496 344.515 76.4466 345.547 79.0169C346.579 81.5872 346.849 84.4156 346.322 87.1444C345.796 89.8728 344.498 92.3791 342.589 94.3464C340.68 96.3138 338.248 97.6535 335.601 98.1963C332.953 98.7391 330.208 98.4604 327.716 97.396C325.22 96.3311 323.088 94.5282 321.591 92.2151C320.09 89.9016 319.291 87.1823 319.291 84.4C319.291 80.6693 320.727 77.0913 323.287 74.4532C325.847 71.8152 329.318 70.3333 332.936 70.3333ZM294.397 70.7271C292.451 76.1481 291.675 81.9399 292.117 87.7011C292.562 93.4623 294.215 99.0554 296.964 104.093L196.459 228.414V141.553C196.597 111.629 188.297 82.309 172.577 57.1529C180.395 56.5621 188.368 56.2667 196.459 56.2667C229.602 56.331 262.57 61.1987 294.397 70.7271ZM76.6594 815.865C32.0174 815.865 -6.16931 776.647 -14.1261 722.603C-14.2164 722.312 -14.321 722.027 -14.4397 721.745C-3.56294 713.008 9.79306 708.185 23.5831 708.018C33.9607 708.331 44.132 711.08 53.3228 716.06C62.5132 721.036 70.4807 728.108 76.6183 736.741L97.9364 719.156C89.2697 707.201 78.0641 697.443 65.1769 690.638C52.2894 683.83 38.0619 680.15 23.5831 679.883C10.3394 680.091 -2.70999 683.201 -14.6984 689.005C-26.6871 694.809 -37.341 703.173 -45.9527 713.544C-47.5358 713.658 -49.16 713.881 -50.7159 713.881C-101.718 713.881 -143.221 663.003 -143.221 600.477C-143.337 573.023 -134.706 546.288 -118.654 524.377C-117.796 523.091 -117.155 521.662 -116.758 520.158C-94.9211 487.803 -68.0347 470.121 -40.0293 470.121C-8.92612 470.121 20.8398 491.842 43.7954 531.282L67.2015 516.794C39.128 468.561 1.03667 441.99 -40.0293 441.99C-75.1318 441.99 -107.995 461.541 -134.349 497.284C-150.53 486.389 -163.739 471.411 -172.723 453.774C-181.707 436.137 -186.166 416.426 -185.679 396.509C-186.545 374.681 -181.29 353.055 -170.543 334.225C-159.797 315.392 -144.014 300.15 -125.083 290.321C-114.768 303.452 -101.852 314.161 -87.1977 321.732C-72.5439 329.303 -56.4905 333.562 -40.1113 334.224C-38.0506 334.224 -36.0172 334.153 -33.8881 334.013C4.65349 331.396 40.5337 304.852 67.1057 259.29L43.7407 244.76C21.9042 282.205 -6.3194 303.924 -35.6759 305.921C-47.7105 306.152 -59.6517 303.705 -70.6859 298.748C-81.7199 293.791 -91.5876 286.441 -99.6158 277.197C-98.2671 274.566 -97.7878 271.554 -98.2509 268.617C-99.8344 260.35 -100.652 251.948 -100.694 243.522C-101.567 221.493 -96.2 199.678 -85.2483 180.74C-74.297 161.801 -58.2341 146.558 -39.0195 136.869C-21.3138 153.972 1.953 163.639 26.2168 163.975C27.4178 163.975 28.6326 163.975 29.8471 163.891C43.0891 163.222 56.0337 159.606 67.7917 153.293C79.5497 146.98 89.8427 138.118 97.9634 127.317L76.6594 109.593C70.9691 117.268 63.7358 123.584 55.4556 128.107C47.1751 132.63 38.0437 135.254 28.6873 135.8C13.1661 136.347 -2.05234 131.281 -14.3308 121.48C-14.3308 121.17 -14.1122 120.903 -14.0576 120.579C-5.84184 67.0135 32.3041 28.1333 76.6594 28.1333C127.661 28.1333 169.164 79.0124 169.164 141.553V702.461C169.164 764.987 127.661 815.865 76.6594 815.865ZM172.577 786.902C188.301 761.748 196.597 732.424 196.459 702.503V615.584L296.964 739.907C294.212 744.946 292.559 750.541 292.114 756.306C291.672 762.068 292.451 767.861 294.397 773.286C262.57 782.812 229.602 787.674 196.459 787.733C188.368 787.733 180.395 787.437 172.577 786.902ZM332.936 773.665C330.238 773.665 327.601 772.841 325.355 771.295C323.112 769.748 321.362 767.552 320.33 764.984C319.297 762.412 319.024 759.583 319.554 756.855C320.08 754.127 321.378 751.618 323.287 749.651C325.196 747.684 327.628 746.346 330.275 745.804C332.923 745.258 335.668 745.54 338.161 746.603C340.653 747.667 342.785 749.47 344.285 751.785C345.786 754.096 346.586 756.817 346.586 759.601C346.586 763.33 345.149 766.909 342.589 769.547C340.029 772.185 336.559 773.665 332.936 773.665ZM469.417 689.266C466.716 689.266 464.078 688.442 461.832 686.896C459.589 685.349 457.839 683.153 456.807 680.581C455.775 678.013 455.505 675.184 456.031 672.456C456.557 669.728 457.856 667.219 459.765 665.252C461.674 663.285 464.105 661.947 466.753 661.401C469.4 660.859 472.146 661.137 474.638 662.204C477.134 663.268 479.265 665.071 480.763 667.386C482.264 669.697 483.063 672.418 483.063 675.198C483.063 678.93 481.626 682.506 479.066 685.147C476.506 687.785 473.036 689.266 469.417 689.266ZM564.951 436.068C562.252 436.068 559.612 435.241 557.369 433.694C555.123 432.151 553.376 429.951 552.34 427.383C551.308 424.811 551.038 421.983 551.565 419.255C552.091 416.527 553.393 414.021 555.301 412.054C557.21 410.087 559.642 408.745 562.29 408.203C564.934 407.661 567.679 407.939 570.175 409.003C572.667 410.07 574.799 411.87 576.299 414.184C577.797 416.499 578.6 419.216 578.6 422C578.6 425.729 577.16 429.308 574.6 431.946C572.04 434.584 568.569 436.068 564.951 436.068Z" fill="url(#paint0_linear_2_10)"/>
<defs>
<linearGradient id="paint0_linear_2_10" x1="196.44" y1="0" x2="196.44" y2="844" gradientUnits="userSpaceOnUse">
<stop stop-color="#161616"/>
<stop offset="1" stop-color="#1E1E1E"/>
</linearGradient>
</defs>
</svg>
